<svg width="192" height="116" viewBox="0 0 192 116" fill="none" xmlns="http://www.w3.org/2000/svg">
<path d="M17.2609 69.6979L19.9847 62.3233L22.5801 69.6979H17.2609ZM25.2222 77.1308H27.7185L21.2445 59.3781H18.7773L12 77.1308H14.5196L16.5085 71.6886H23.2859L25.2222 77.1308ZM37.0622 73.3707C37.0622 74.82 35.884 75.5884 33.8776 75.5884C32.2562 75.5884 31.1655 75.1344 30.5648 74.0866L28.1676 74.5057C29.1008 76.4149 31.0489 77.3229 33.7843 77.3229C37.4996 77.3229 39.4418 75.2682 39.4418 73.0797C39.4418 70.2684 36.8464 69.5059 33.8543 68.9063C32.4137 68.6153 30.7164 68.0856 30.7164 66.8051C30.7164 65.8971 31.603 64.8436 33.3877 64.8436C35.1725 64.8436 36.2923 66.0776 36.4614 66.5665L38.567 65.6934C37.6046 63.8541 35.6682 63.1032 33.6443 63.1032C30.5181 63.1032 28.4476 64.6399 28.4476 67.0845C28.4476 69.8667 30.8331 70.4081 33.1486 70.9144C35.1375 71.3393 37.068 71.8283 37.068 73.3591L37.0622 73.3707ZM44.4169 59.3781L42.0781 60.3501V63.6271H39.9318V65.513H42.0781V74.1798C42.049 75.9434 42.049 77.2123 44.6736 77.2123C45.531 77.2123 46.4758 77.0435 46.8724 76.9853V75.1169C46.4175 75.2566 45.8167 75.4312 45.3851 75.4312C44.4111 75.4312 44.4111 74.7502 44.4111 73.1554V65.513H46.8666V63.6271H44.4111V59.3781H44.4169ZM48.9255 63.6271V77.125H51.1943V70.9203C51.1943 69.762 51.1651 68.3941 51.7659 67.4163C52.5008 66.2172 53.5973 65.7632 55.8195 65.7516V63.4117C54.9038 63.4408 52.4774 63.499 51.1885 66.0426V63.6271H48.9196H48.9255ZM69.2458 59.3781V61.5666H79.3535L69.24 74.82V77.125H82.3048V74.9947H71.9813L82.0481 61.5899V59.3781H69.2458ZM96.5244 63.6271V77.125H98.7932V69.4709C98.7932 68.4698 98.7932 67.4454 99.7964 66.4501C100.514 65.74 101.377 65.4257 102.38 65.4257C103.617 65.4257 104.876 65.9961 105.279 67.2766C105.425 67.7306 105.425 68.1264 105.425 69.5V77.1308H107.688V69.1333C107.688 67.9925 107.688 67.1718 107.454 66.3686C106.801 64.1451 104.736 63.2837 103.01 63.2837C102.211 63.2837 100.059 63.4816 98.7932 65.6876V63.6329H96.5244V63.6271ZM131.776 73.8596C131.298 74.7851 130.411 75.6233 128.656 75.6233C127.127 75.6233 124.567 74.6629 124.567 70.216C124.567 69.0169 124.783 64.7796 128.516 64.7796C130.399 64.7796 131.268 65.804 131.665 66.6887L133.794 65.804C132.482 63.6271 130.119 63.1207 128.434 63.1207C124.13 63.1207 122.047 66.5781 122.047 70.3906C122.047 73.6909 123.85 77.3694 128.632 77.3694C131.403 77.3694 132.942 76.0365 133.788 74.7036L131.782 73.8655L131.776 73.8596ZM85.5651 68.9762H92.7332C92.5349 65.4489 90.4936 64.8494 89.1346 64.8494C87.1924 64.8494 85.8217 66.2696 85.5651 68.9762ZM94.5996 74.5407C93.8239 75.8561 92.3308 77.3578 89.3912 77.3578C85.396 77.3578 83.098 74.6512 83.098 70.1112C83.098 65.0473 86.4517 63.1032 89.3037 63.1032C91.7825 63.1032 94.1622 64.4711 94.9613 67.8586C95.2179 68.9995 95.2179 70.0239 95.2179 70.5943H85.5068C85.4485 72.8469 86.3933 75.6989 89.5895 75.6466C90.8902 75.6233 91.8117 75.0354 92.395 74.1099L94.5996 74.5348V74.5407ZM111.362 68.9762H118.53C118.332 65.4489 116.291 64.8494 114.932 64.8494C112.989 64.8494 111.619 66.2696 111.362 68.9762ZM120.403 74.5407C119.627 75.8561 118.134 77.3578 115.188 77.3578C111.199 77.3578 108.901 74.6512 108.901 70.1112C108.901 65.0473 112.249 63.1032 115.101 63.1032C117.585 63.1032 119.959 64.4711 120.758 67.8586C121.015 68.9995 121.015 70.0239 121.015 70.5943H111.304C111.246 72.8469 112.196 75.6989 115.387 75.6466C116.687 75.6233 117.609 75.0354 118.192 74.1099L120.397 74.5348L120.403 74.5407ZM146.188 77.125L143.826 77.1366C143.826 77.1366 143.622 76.1821 143.558 75.146C142.875 75.8561 141.604 77.3229 139.032 77.3229C136.459 77.3229 134.459 75.763 134.459 73.4871C134.459 72.7712 134.657 72.0611 135.06 71.4616C135.835 70.3207 137.264 69.4069 141.289 69.0926L143.429 68.9238V68.5804C143.429 67.1835 143.429 64.8436 140.408 64.8436C138.512 64.8436 137.865 65.7632 137.649 66.5898L135.561 65.7167C135.59 65.6468 135.631 65.5712 135.672 65.4955C136.471 64.0171 138.052 63.1032 140.326 63.1032C141.58 63.1032 143.202 63.4176 144.257 64.2441C145.762 65.3849 145.721 67.6258 145.721 67.6258L145.815 74.5465C145.815 74.5465 145.891 76.5546 146.182 77.1192L146.188 77.125ZM143.085 73.4056C143.429 72.6606 143.453 72.3521 143.453 70.379C142.572 70.5186 141.376 70.6933 139.912 71.0018C137.404 71.5489 136.973 72.486 136.973 73.4289C136.973 74.5116 137.83 75.4254 139.51 75.4254C141.085 75.4254 142.42 74.7968 143.079 73.3998L143.085 73.4056ZM67.6419 77.125L65.2797 77.1366C65.2797 77.1366 65.0756 76.1821 65.0114 75.146C64.3232 75.8561 63.0517 77.3229 60.4854 77.3229C57.9191 77.3229 55.9069 75.763 55.9069 73.4871C55.9069 72.7712 56.1052 72.0611 56.5077 71.4616C57.2834 70.3207 58.7182 69.4069 62.7426 69.0926L64.8831 68.9238V68.5804C64.8831 67.1835 64.8831 64.8436 61.8677 64.8436C59.9663 64.8436 59.3248 65.7632 59.1031 66.5898L57.0151 65.7167C57.0501 65.6468 57.0851 65.5712 57.1259 65.4955C57.9308 64.0171 59.5056 63.1032 61.7861 63.1032C63.0342 63.1032 64.6557 63.4176 65.7172 64.2441C67.222 65.3849 67.1928 67.6258 67.1928 67.6258L67.2803 74.5465C67.2803 74.5465 67.3619 76.5546 67.6536 77.1192L67.6419 77.125ZM64.5332 73.4056C64.8773 72.6606 64.9065 72.3521 64.9065 70.379C64.0199 70.5186 62.8301 70.6933 61.3661 71.0018C58.8523 71.5489 58.4207 72.486 58.4207 73.4289C58.4207 74.5116 59.2781 75.4254 60.9637 75.4254C62.5326 75.4254 63.8741 74.7968 64.5273 73.3998L64.5332 73.4056Z" fill="#1C2024"/>
<path d="M160.962 65.7691C160.612 65.9961 160.256 66.2172 159.906 66.4501C155.829 64.1917 147.075 59.8379 146.316 59.4421C145.506 59.023 144.088 58.4526 144.269 57.1081C144.52 55.2164 147.804 51.0838 149.198 49.3842C156.745 40.1644 160.128 37.324 162.373 37.6208C164.764 37.9351 166.094 40.4031 166.252 51.9569C164.916 51.5436 163.44 51.1187 161.872 50.7287C161.743 49.0524 161.428 46.5146 161.312 45.6416C161.177 44.6521 160.985 44.2796 160.588 44.2272C160.133 44.169 159.037 45.2225 158.034 46.2469C157.579 46.7067 156.296 48.0047 154.878 49.4308C153.694 49.3551 152.907 49.5995 152.47 50.1758C152.12 50.6414 152.044 51.2759 152.254 52.0733C151.49 52.8358 150.831 53.4935 150.411 53.9126C148.836 55.4783 147.174 56.7763 147.086 57.4107C147.016 57.9288 147.815 58.4701 148.947 59.1453C151.717 60.7983 158.541 64.4827 160.956 65.7749L160.962 65.7691ZM171.559 54.2327C168.894 53.3072 162.309 50.8568 155.362 49.943C152.971 49.6286 152.009 50.4785 152.994 52.7485C153.963 54.9894 156.482 58.7495 159.119 61.5724C161.755 64.3896 164.613 65.1521 165.523 60.8041C165.558 60.647 165.587 60.4956 165.616 60.3443C165.838 59.2268 166.001 58.1441 166.083 57.1954C164.916 56.6657 163.604 56.1011 162.291 55.5482C162.361 56.5435 162.484 58.2664 162.542 59.5876C162.548 59.7564 162.56 59.9194 162.56 60.0824C162.641 62.2243 161.907 62.2185 160.682 61.3454C159.259 60.3268 154.896 54.5819 154.4 52.0442C154.377 51.8754 154.458 51.8696 154.546 51.8987C154.575 51.9103 154.61 51.922 154.651 51.9394C154.651 51.9394 154.657 51.9394 154.663 51.9394C155.648 52.3236 158.92 53.6157 162.251 55.0185C163.58 55.5773 164.916 56.1535 166.112 56.6948C167.29 57.2245 168.346 57.7251 169.133 58.1441C170.574 58.9124 171.128 59.4363 170.527 60.0475C167.529 63.08 157.071 67.3988 153.461 72.7363C153.461 72.7363 153.444 72.7537 153.42 72.7887C153.379 72.8469 153.339 72.9109 153.304 72.9807C153.292 72.9982 153.286 73.0215 153.274 73.0389C153.094 73.3649 152.843 73.9353 152.75 74.6221C152.598 75.7863 153.204 76.8514 154.884 77.3054C155.304 77.4276 155.782 77.5208 156.307 77.5732C156.401 77.579 156.5 77.5906 156.605 77.5906C159.83 77.7478 168.2 75.9143 170.743 74.7851C173.373 73.621 172.586 72.4569 171.828 71.8574C171.256 71.4034 168.328 69.7736 166.905 68.9878C166.526 69.2323 166.228 69.4186 165.849 69.663C168.27 71.1356 169.226 71.869 169.792 72.2997C170.008 72.4685 169.891 72.6723 169.57 72.6955C169.483 72.7014 169.413 72.7072 169.314 72.713C167.016 72.8702 162.665 73.1786 160.623 73.2834C160.326 73.3009 159.988 73.3183 159.801 73.3242C160.308 72.8527 160.874 72.422 161.154 72.2241C165.523 69.1566 172.807 64.8494 174.948 62.9985C176.529 61.6365 180.839 57.4573 171.559 54.2211V54.2327Z" fill="#1C2024"/>
</svg>
