<svg width="192" height="116" viewBox="0 0 192 116" fill="none" xmlns="http://www.w3.org/2000/svg">
<path d="M112.788 71.4213L123.861 71.2943C126.207 71.2943 128.127 73.1547 128.127 75.4524C128.127 77.7436 126.207 79.5975 123.861 79.5975H112.788V71.4213ZM85.3681 84.6803C94.6777 84.6803 102.876 80.0411 107.684 73.0169V84.6803H123.934C129.21 84.6803 133.44 80.6052 133.44 75.4521C133.44 72.8002 132.304 70.402 130.485 68.7052C132.304 66.9999 133.44 64.6105 133.44 61.9584C133.44 56.8054 129.145 52.6167 123.862 52.6167H119.97L114.657 57.8068H123.862C126.208 57.8068 128.128 59.6673 128.128 61.9585C128.128 64.2475 126.207 66.1035 123.862 66.1035H104.665C101.588 73.5562 94.1114 78.8073 85.3689 78.8073C73.8769 78.8073 64.5764 69.7279 64.5764 58.5133C64.5764 47.305 73.877 38.2193 85.3689 38.2193C94.6315 38.2193 102.473 44.1221 105.169 52.2854L109.749 47.6069C105.509 38.6086 96.1799 32.3604 85.3686 32.3604C70.5622 32.3604 58.5601 44.0714 58.5601 58.5138C58.5601 72.9649 70.5617 84.6803 85.3681 84.6803ZM101.975 66.2732L123.936 44.0131L123.974 43.9759V36.8578L95.1756 66.2735L101.975 66.2732Z" fill="#1C2024"/>
</svg>
