<svg width="192" height="116" viewBox="0 0 192 116" fill="none" xmlns="http://www.w3.org/2000/svg">
<path d="M101.13 62.6713C101.13 66.4384 96.4019 66.2148 96.4019 66.2148H91.6743V59.4079H96.4019C101.267 59.3756 101.13 62.6713 101.13 62.6713ZM91.6743 49.0269H95.2768C99.0176 49.2228 98.8764 51.9845 98.8764 51.9845C98.8764 55.4165 94.74 55.4724 94.74 55.4724H91.6743V49.0269ZM100.255 56.811C100.255 56.811 103.491 55.4437 103.462 51.8171C103.462 51.8171 103.954 45.8737 96.0128 45.1488H87.2006V70.065H97.3015C97.3015 70.065 105.741 70.0899 105.741 63.0347C105.741 63.0347 105.941 58.2336 100.255 56.811ZM77.4495 40.2666H114.55V74.9333H77.4495V40.2666ZM58.3464 62.6713C58.3464 66.4384 53.6187 66.2148 53.6187 66.2148H48.8907V59.4079H53.6187C58.4844 59.3756 58.3464 62.6713 58.3464 62.6713ZM48.8907 49.0269H52.494C56.2349 49.2228 56.0934 51.9845 56.0934 51.9845C56.0934 55.4165 51.9572 55.4724 51.9572 55.4724H48.8907V49.0269V49.0269ZM57.4723 56.811C57.4723 56.811 60.7087 55.4437 60.6796 51.8171C60.6796 51.8171 61.1714 45.8737 53.2298 45.1488H44.4173V70.065H54.5188C54.5188 70.065 62.9584 70.0899 62.9584 63.0347C62.9584 63.0347 63.1572 58.2336 57.4723 56.811ZM34.6667 40.2666H71.7676V74.9333H34.6667V40.2666ZM149.765 46.9351V51.5383C149.765 51.5383 145.233 48.7771 140.226 48.7215C140.226 48.7215 130.883 48.5396 130.462 57.6012C130.462 57.6012 130.125 65.9346 140.113 66.4094C140.113 66.4094 144.304 66.9099 149.99 63.315V68.0824C149.99 68.0824 142.363 72.5753 133.528 69.1148C133.528 69.1148 126.101 66.4256 125.818 57.6012C125.818 57.6012 125.51 48.5252 135.415 45.5123C135.415 45.5123 138.06 44.5083 142.813 44.9545C142.813 44.9544 145.654 45.2331 149.765 46.9351ZM120.232 74.9333H157.333V40.2666H120.232V74.9333Z" fill="#1C2024"/>
</svg>
