<svg width="192" height="116" viewBox="0 0 192 116" fill="none" xmlns="http://www.w3.org/2000/svg">
<path fill-rule="evenodd" clip-rule="evenodd" d="M115.273 54.6289C116.476 55.4224 117.897 55.8203 119.337 55.767V55.776C122.652 55.776 124.359 54.0418 124.359 51.4042C124.359 49.2996 122.77 47.8002 120.62 47.0776C119.021 46.5537 118.551 46.1834 118.551 45.524C118.551 44.8646 119.102 44.3588 120.268 44.3588C121.25 44.3739 122.211 44.6515 123.05 45.1627L123.303 42.4529C122.304 41.8727 121.159 41.5935 120.006 41.649C117.079 41.649 115.345 43.4555 115.327 45.7227C115.327 47.5834 116.6 49.0829 118.94 49.9048C120.611 50.51 121.071 50.9074 121.071 51.7113C121.071 52.5153 120.403 53.0211 119.193 53.0211C117.652 53.0086 116.163 52.4664 114.974 51.4855L115.273 54.6289ZM76.2516 55.7669C74.865 55.7331 73.519 55.2913 72.3821 54.4967C71.2452 53.7021 70.3677 52.59 69.8595 51.2994C69.3512 50.0088 69.2347 48.597 69.5245 47.2405C69.8143 45.8841 70.4976 44.6432 71.4889 43.6729C72.4802 42.7027 73.7355 42.0463 75.0979 41.7856C76.4602 41.525 77.8692 41.6718 79.1486 42.2077C80.428 42.7435 81.521 43.6447 82.291 44.7984C83.061 45.9521 83.4738 47.3073 83.4777 48.6943C83.4817 49.6372 83.2963 50.5713 82.9326 51.4413C82.5689 52.3112 82.0343 53.0993 81.3604 53.7588C80.6866 54.4184 79.8872 54.9359 79.0097 55.2809C78.1321 55.6258 77.1942 55.791 76.2516 55.7669ZM76.2516 44.5393C75.7195 44.5485 75.1946 44.664 74.7077 44.879C74.2208 45.094 73.7819 45.4042 73.4166 45.7913C73.0514 46.1785 72.7672 46.6347 72.5809 47.1332C72.3945 47.6318 72.3097 48.1625 72.3315 48.6943C72.306 49.2268 72.3888 49.7588 72.575 50.2583C72.7611 50.7578 73.0468 51.2143 73.4146 51.6001C73.7824 51.986 74.2246 52.2931 74.7146 52.503C75.2046 52.7129 75.7321 52.8211 76.2652 52.8211C76.7982 52.8211 77.3257 52.7129 77.8157 52.503C78.3057 52.2931 78.748 51.986 79.1158 51.6001C79.4836 51.2143 79.7692 50.7578 79.9554 50.2583C80.1416 49.7588 80.2244 49.2268 80.1989 48.6943C80.217 48.1612 80.1287 47.6298 79.9393 47.1312C79.75 46.6325 79.4632 46.1765 79.0958 45.7898C78.7284 45.4031 78.2877 45.0933 77.7994 44.8786C77.3111 44.664 76.785 44.5486 76.2516 44.5393ZM62.9827 44.6651V47.3478H66.9119V50.0666H62.9827V55.45H59.7129V41.9824H67.7519V44.6651H62.9827ZM88.5685 54.4967C89.7054 55.2913 91.0513 55.7331 92.438 55.7669C93.3806 55.791 94.3185 55.6258 95.196 55.2809C96.0736 54.9359 96.873 54.4184 97.5468 53.7588C98.2207 53.0993 98.7553 52.3112 99.119 51.4413C99.4827 50.5713 99.668 49.6372 99.6641 48.6943C99.6601 47.3073 99.2474 45.9521 98.4774 44.7984C97.7074 43.6447 96.6143 42.7435 95.335 42.2077C94.0556 41.6718 92.6466 41.525 91.2842 41.7856C89.9218 42.0463 88.6665 42.7027 87.6753 43.6729C86.684 44.6432 86.0007 45.8841 85.7109 47.2405C85.4211 48.597 85.5376 50.0088 86.0458 51.2994C86.5541 52.59 87.4315 53.7021 88.5685 54.4967ZM90.8928 44.8789C91.3801 44.664 91.9055 44.5485 92.438 44.5393C92.9713 44.5486 93.4975 44.664 93.9858 44.8786C94.4741 45.0933 94.9148 45.4031 95.2822 45.7898C95.6496 46.1765 95.9363 46.6325 96.1257 47.1312C96.3151 47.6298 96.4033 48.1612 96.3853 48.6943C96.4218 49.2339 96.3471 49.7753 96.1658 50.2848C95.9844 50.7944 95.7003 51.2612 95.331 51.6563C94.9617 52.0515 94.5152 52.3665 94.0191 52.5819C93.523 52.7973 92.9879 52.9085 92.447 52.9085C91.9062 52.9085 91.3711 52.7973 90.875 52.5819C90.3789 52.3665 89.9324 52.0515 89.5631 51.6563C89.1938 51.2612 88.9097 50.7944 88.7283 50.2848C88.547 49.7753 88.4723 49.2339 88.5088 48.6943C88.4883 48.1621 88.5742 47.6311 88.7616 47.1326C88.949 46.634 89.234 46.1778 89.6 45.7908C89.9659 45.4038 90.4054 45.0938 90.8928 44.8789ZM106.339 55.45H101.823V41.9824H106.339C110.223 41.9824 113.565 44.5206 113.565 48.7207C113.565 52.9209 110.232 55.45 106.339 55.45ZM105.96 44.7915H104.948V52.6409H105.96C108.299 52.6409 110.286 51.3312 110.286 48.7207C110.286 46.1103 108.299 44.7915 105.96 44.7915ZM68.6823 60.7888C67.6017 60.1743 66.3754 59.8623 65.1325 59.8856C63.6137 59.8856 62.1571 60.4889 61.0831 61.5629C60.0091 62.6368 59.4058 64.0934 59.4058 65.6123C59.4058 67.1311 60.0091 68.5877 61.0831 69.6616C62.1571 70.7356 63.6137 71.3389 65.1325 71.3389C66.459 71.3929 67.7747 71.0804 68.9352 70.4357L68.601 71.8719C67.4773 72.4143 66.2335 72.6599 64.988 72.5854C63.1409 72.5854 61.3696 71.8517 60.0636 70.5457C58.7575 69.2397 58.0238 67.4683 58.0238 65.6213C58.0238 63.7743 58.7575 62.0029 60.0636 60.6969C61.3696 59.3909 63.1409 58.6571 64.988 58.6571C66.3662 58.6038 67.7341 58.9154 68.9533 59.5604L68.6823 60.7888ZM73.572 71.3469C74.7061 72.121 76.0437 72.5426 77.4168 72.5586C78.3416 72.5768 79.2608 72.4091 80.1196 72.0655C80.9785 71.7218 81.7596 71.2092 82.4166 70.5581C83.0737 69.9069 83.5933 69.1304 83.9447 68.2747C84.2961 67.419 84.4721 66.5014 84.4622 65.5764C84.4585 64.2033 84.0491 62.8619 83.2852 61.7208C82.5213 60.5798 81.4372 59.69 80.1691 59.1634C78.901 58.6367 77.5055 58.4967 76.158 58.761C74.8105 59.0252 73.5712 59.6819 72.5959 60.6484C71.6206 61.615 70.9528 62.8483 70.6765 64.1933C70.4001 65.5383 70.5275 66.9351 71.0427 68.2079C71.5579 69.4807 72.4379 70.5728 73.572 71.3469ZM75.2374 60.2832C75.928 59.9968 76.6692 59.8524 77.4168 59.8588C78.164 59.8537 78.9046 59.9989 79.5946 60.2858C80.2846 60.5727 80.9098 60.9954 81.4331 61.5289C81.9564 62.0623 82.3671 62.6955 82.6407 63.3908C82.9144 64.0862 83.0454 64.8294 83.026 65.5764C83.026 66.313 82.8809 67.0424 82.599 67.723C82.3172 68.4035 81.904 69.0219 81.3831 69.5428C80.8622 70.0636 80.2439 70.4768 79.5633 70.7587C78.8828 71.0406 78.1534 71.1857 77.4168 71.1857C76.6801 71.1857 75.9507 71.0406 75.2702 70.7587C74.5897 70.4768 73.9713 70.0636 73.4504 69.5428C72.9296 69.0219 72.5164 68.4035 72.2345 67.723C71.9526 67.0424 71.8075 66.313 71.8075 65.5764C71.7869 64.8291 71.917 64.0853 72.1902 63.3894C72.4634 62.6935 72.874 62.0598 73.3976 61.5261C73.9212 60.9924 74.5469 60.5697 75.2374 60.2832ZM98.3454 72.6216L91.7245 65.0252C90.5864 63.7154 89.3579 62.2612 88.4276 61.1412V64.8716V72.3597H87.0185V58.8649H88.0121L94.2536 66.0368C94.4758 66.2968 94.7205 66.5809 94.9762 66.8778L94.9763 66.8779L94.9794 66.8816L94.9817 66.8842L94.9824 66.885C95.7647 67.7933 96.65 68.8212 97.3157 69.6499V66.082V58.8649H98.7248V72.6216H98.3454ZM106.556 65.0252L113.177 72.6216H113.556V58.8649H112.147V66.082V69.6499C111.482 68.8214 110.597 67.7939 109.815 66.8859L109.814 66.8849L109.812 66.883C109.555 66.5842 109.309 66.2983 109.085 66.0368L102.844 58.8649H101.85V72.3597H103.259V64.8716V61.1412C104.19 62.2612 105.418 63.7154 106.556 65.0252ZM116.682 72.3235V58.8649H123.709V60.0934H118.091V64.9439H122.697V66.1633H118.091V71.1041H124.45V72.3235H116.682ZM133.284 59.8856C134.527 59.8623 135.753 60.1743 136.833 60.7888L137.095 59.5604C135.876 58.9154 134.508 58.6038 133.13 58.6571C131.283 58.6571 129.512 59.3909 128.206 60.6969C126.9 62.0029 126.166 63.7743 126.166 65.6213C126.166 67.4683 126.9 69.2397 128.206 70.5457C129.512 71.8517 131.283 72.5854 133.13 72.5854C134.376 72.6636 135.621 72.4178 136.743 71.8719L137.086 70.4357C135.926 71.0804 134.61 71.3929 133.284 71.3389C131.765 71.3389 130.308 70.7356 129.234 69.6616C128.16 68.5877 127.557 67.1311 127.557 65.6123C127.557 64.0934 128.16 62.6368 129.234 61.5629C130.308 60.4889 131.765 59.8856 133.284 59.8856ZM144.132 60.0843V72.3235H142.714V60.0843H138.098V58.8649H148.774V60.0843H144.132ZM150.581 58.8649V72.3235H158.349V71.1041H151.999V66.1633H156.597V64.9439H151.999V60.0934H157.608V58.8649H150.581ZM164.049 72.3597H160.526V58.8649H164.049C168.122 58.8649 171.519 61.3128 171.519 65.5942C171.519 69.8757 168.077 72.3597 164.049 72.3597ZM163.841 60.1295H161.935V71.1041H163.841C167.382 71.1041 170.064 69.1802 170.064 65.5942C170.064 62.0083 167.355 60.0934 163.841 60.0934V60.1295ZM21.3333 63.0561H34.6655V72.3236H21.3333V63.0561ZM41.8915 52.5525H21.3333V61.82H41.8915V52.5525ZM21.3333 42.0361H49.1357V51.3036H21.3333V42.0361Z" fill="#1C2024"/>
</svg>
