<svg width="192" height="116" viewBox="0 0 192 116" fill="none" xmlns="http://www.w3.org/2000/svg">
<path fill-rule="evenodd" clip-rule="evenodd" d="M160.532 42.5452C160.502 42.3274 160.471 42.0996 160.547 41.8765L160.593 41.9223C160.631 41.8003 160.676 41.8003 160.737 41.8003C160.861 41.8396 160.913 41.9589 160.971 42.0907C161.048 42.2661 161.135 42.4635 161.411 42.5245C161.692 42.6026 161.936 42.7781 162.101 43.0199C162.201 43.1426 162.34 43.2262 162.495 43.2562C162.889 43.363 163.162 43.0657 163.078 42.8294C163.213 42.8445 163.339 42.9057 163.434 43.0029C163.529 43.1 163.588 43.2272 163.601 43.363C163.616 43.4492 163.657 43.5288 163.718 43.5913C163.779 43.6539 163.857 43.6965 163.942 43.7136C164.82 43.9181 165.13 44.4908 165.37 44.9348C165.64 45.4341 165.822 45.7708 166.625 45.2382C166.996 45.7336 166.473 46.717 166.314 46.7627C166.428 47.0206 166.622 47.2345 166.867 47.3725C167.306 47.6355 167.49 47.9564 167.631 48.2019C167.797 48.4903 167.903 48.6747 168.292 48.5388C168.263 48.8264 168.137 49.0954 167.936 49.3011C167.681 49.5422 167.346 49.6782 166.996 49.6822C167.185 50.2921 168.223 50.94 168.223 50.94C168.117 51.1559 167.956 51.3399 167.756 51.4736C167.557 51.6074 167.326 51.6862 167.087 51.7023C166.655 51.7404 166.776 52.274 166.988 52.396C167.176 52.5871 167.321 52.8169 167.412 53.0694C167.504 53.322 167.54 53.5915 167.519 53.8595C167.231 53.669 166.647 53.7223 166.897 54.2788C166.969 54.442 167.085 54.5819 167.231 54.6828C167.954 54.5579 168.687 54.5043 169.421 54.5227C169.516 54.5125 169.609 54.5019 169.699 54.4915C170.687 54.3777 171.363 54.2999 172.217 55.285C173.162 56.4869 174.19 57.6205 175.293 58.6771C175.531 58.8661 175.707 59.1059 175.884 59.3479C176.057 59.5843 176.232 59.8229 176.468 60.0187C176.945 60.4151 177.688 61.9778 176.271 61.7339C175.786 61.711 174.96 61.5357 174.823 61.0173C174.781 60.9083 174.819 60.7463 174.86 60.5778C174.927 60.2986 174.998 60.0013 174.71 59.8968C174.667 59.8771 174.609 59.8671 174.546 59.8559C174.363 59.8239 174.129 59.7828 174.028 59.4775C173.518 58.5067 172.82 57.6487 171.974 56.9544C171.611 56.6952 170.459 55.8796 169.701 56.4055C168.902 56.9402 168.025 57.3465 167.102 57.6099L166.988 57.7548C167.263 57.7486 167.643 57.7289 168.055 57.7076C168.666 57.6758 169.348 57.6404 169.86 57.6404C170.049 57.627 170.238 57.6666 170.406 57.7548C170.893 58.0616 171.119 58.6346 171.327 59.1622C171.414 59.3817 171.497 59.5934 171.595 59.7748C172.014 61.0008 172.571 62.1747 173.255 63.2737C173.748 63.8567 174.005 64.605 173.975 65.3699C174.081 66.5972 173.626 67.207 172.626 66.4447C172.474 66.3609 171.429 65.6367 171.944 65.0345C171.984 64.9592 172.048 64.8738 172.113 64.7852C172.321 64.506 172.551 64.1956 172.149 64.074C172.064 64.0491 171.989 63.9996 171.932 63.9318C171.876 63.864 171.84 63.7809 171.83 63.6929C171.571 62.7518 171.255 61.8277 170.883 60.9258C170.269 59.8891 169.671 58.9592 168.314 59.851C167.149 60.5913 165.922 61.2289 164.647 61.7567C164.291 61.9498 163.952 61.8848 163.599 61.817C163.478 61.7938 163.356 61.7703 163.23 61.7567C162.701 61.8706 162.204 62.043 161.711 62.2143C160.883 62.5016 160.065 62.7858 159.115 62.7858C158.122 62.8984 156.839 62.7367 155.635 62.5851C154.883 62.4903 154.162 62.3994 153.561 62.3818C153.137 63.6588 152.402 64.809 151.424 65.7282C151.221 65.9025 150.981 66.011 150.75 66.1154C150.273 66.3307 149.833 66.5291 149.833 67.2527C149.862 67.6893 149.981 68.115 150.182 68.5029C150.405 68.8955 150.658 69.2702 150.939 69.6234C151.457 70.2747 151.699 70.6898 151.927 71.0815C152.166 71.4922 152.39 71.8773 152.902 72.482C153.176 72.8154 153.518 73.0362 153.84 73.2444C154.417 73.6168 154.931 73.9491 154.887 74.8145H152.614C152.549 74.7412 152.5 74.481 152.452 74.2334C152.411 74.0175 152.372 73.8113 152.326 73.7473C152.256 73.5652 152.092 73.4846 151.917 73.3985C151.733 73.308 151.537 73.2116 151.424 72.9851C151.33 72.7956 151.312 72.6328 151.295 72.4719C151.272 72.2574 151.249 72.0464 151.045 71.7807C150.595 71.0649 150.102 70.3776 149.568 69.7225C149.426 69.5553 149.307 69.3966 149.186 69.2357C149.004 68.9932 148.818 68.7459 148.545 68.4571C147.764 67.8092 147.469 66.8259 148.227 66.0636C148.376 65.9222 148.497 65.7525 148.582 65.5641C148.666 65.3758 148.713 65.1725 148.719 64.9659C148.01 65.4886 147.181 65.8217 146.309 65.934C145.968 66.0803 145.67 66.3131 145.444 66.6096C145.218 66.9061 145.073 67.2564 145.021 67.6263C145.011 67.9903 144.951 68.4267 144.887 68.8964C144.677 70.4333 144.418 72.3281 145.665 73.2214C146.203 73.5796 146.916 74.1361 146.81 74.8069H144.483C144.38 74.5914 144.338 74.3513 144.362 74.1132C144.291 73.4457 144.198 73.3788 143.828 73.1113C143.762 73.0642 143.688 73.0109 143.604 72.947C143.185 72.6275 143.27 72.2057 143.359 71.7676C143.388 71.6203 143.419 71.4711 143.43 71.3233C143.436 71.2503 143.448 71.1281 143.462 70.982C143.502 70.5794 143.559 69.9956 143.559 69.7606C143.642 68.7867 143.642 67.8074 143.559 66.8335C143.545 66.6591 143.524 66.5052 143.505 66.3658C143.423 65.7556 143.379 65.421 144.082 64.8439C145.09 64.0969 145.878 63.3575 146.014 62.0845C145.802 60.7886 145.59 58.7915 146.347 57.6633C146.391 57.5627 146.468 57.4621 146.541 57.3656C146.656 57.2133 146.763 57.071 146.726 56.9544C146.598 56.9179 146.466 56.9146 146.332 56.9112C146.158 56.9068 145.978 56.9023 145.794 56.8248C145.572 56.7588 145.334 56.7747 145.123 56.8698C144.912 56.9648 144.741 57.1327 144.642 57.3431C144.233 57.2059 144.294 56.4055 144.642 56.1387C144.642 56.1387 144.718 56.0168 144.574 56.0168C143.983 55.971 143.445 56.7333 143.354 57.1297C143.354 57.1297 143.172 57.1221 143.028 56.8248C142.975 56.7104 142.915 56.6647 142.862 56.6647C142.642 56.7257 142.642 56.9163 142.642 57.1221C142.742 57.9577 143.303 58.4291 143.866 58.903C144.495 59.432 145.127 59.9642 145.127 61.0097C145.142 61.2971 145.091 61.5841 144.978 61.8484C144.865 62.1128 144.693 62.3475 144.476 62.5342C144.376 62.6841 143.982 62.8313 143.557 62.9902C142.729 63.3 141.783 63.654 142.665 64.1579C142.619 64.2432 142.551 64.3144 142.468 64.3637C142.3 64.4323 142.119 64.4572 141.939 64.4359C141.76 64.4147 141.589 64.348 141.442 64.2422C141.295 64.1364 141.177 63.9948 141.1 63.8308C141.022 63.6667 140.987 63.4855 140.998 63.3041C141.043 62.8544 141.172 62.5114 142.089 61.9473C142.778 61.5433 142.869 60.9335 142.46 60.5218C140.596 59.2793 139.035 57.3126 139.793 54.7971C139.954 54.2117 140.28 53.6856 140.732 53.282C141.183 52.8784 141.741 52.6145 142.338 52.5219C142.935 52.4294 143.545 52.5121 144.097 52.7602C144.648 53.0083 145.116 53.4112 145.446 53.9205C145.574 54.1492 146.757 55.5594 147.408 55.6737C147.408 55.7195 147.939 55.9024 148.166 55.7195C149.075 55.1454 150.124 54.8366 151.197 54.8276C151.918 54.8432 152.548 54.9478 153.155 55.0484C154.032 55.1942 154.86 55.3316 155.842 55.1783C158.593 54.6523 161.366 51.8395 161.578 49.1563C161.578 48.1729 160.063 49.3164 160.063 49.3164L159.593 49.6975C159.52 49.7652 159.485 49.883 159.448 50.0099C159.385 50.226 159.314 50.4688 159.032 50.536C158.943 50.5905 158.841 50.6194 158.736 50.6194C158.632 50.6194 158.53 50.5905 158.441 50.536C158.294 50.4734 158.159 50.4313 158.036 50.393C157.547 50.2405 157.256 50.1498 157.183 49.0648C157.187 48.6613 157.384 48.4306 157.604 48.1735C157.779 47.9692 157.967 47.7482 158.085 47.4107C158.173 47.0996 158.389 46.7982 158.601 46.5036C158.81 46.2134 159.014 45.9297 159.085 45.6498C159.026 45.4977 159.016 45.3303 159.059 45.1725C159.101 45.0146 159.193 44.8746 159.32 44.7732C159.395 44.6907 159.469 44.6135 159.54 44.5397C159.836 44.2316 160.078 43.9803 160.078 43.6298C160.085 43.4976 159.979 43.3387 159.87 43.1749C159.746 42.9892 159.618 42.7973 159.646 42.6312C159.751 42.1334 160.065 42.4974 160.314 42.7868C160.405 42.8918 160.487 42.987 160.547 43.0276C160.577 42.8775 160.555 42.7144 160.532 42.5452ZM19.5387 69.4174V62.4578C20.2152 61.7179 21.1548 61.2768 22.1529 61.2306C24.0094 61.2306 25.1839 62.9076 25.1839 65.9795C25.1839 69.0515 24.017 70.6752 22.0999 70.6752C21.6067 70.6537 21.1231 70.5311 20.6788 70.3148C20.2345 70.0985 19.8388 69.7931 19.516 69.4174H19.5387ZM16.0001 73.305H18.6522L19.0159 71.7347C19.4971 72.323 20.104 72.7944 20.7915 73.1138C21.479 73.4332 22.2293 73.5924 22.9865 73.5795C26.2902 73.5795 28.6544 70.5303 28.6544 65.9567C28.6544 61.2306 26.2372 58.3339 23.0925 58.3339C22.414 58.3124 21.7401 58.4531 21.1263 58.7447C20.5124 59.0362 19.9761 59.4702 19.5615 60.0109V52.9827H16.1668V69.89C16.1668 70.5913 16.1137 71.7347 16.0001 73.305ZM33.9586 52.9827H30.5108V73.305H33.9586V52.9827ZM44.029 69.2801V66.1777C40.7934 66.6198 39.2779 67.5422 39.2779 69.2801C39.2637 69.488 39.2947 69.6965 39.3688 69.8911C39.4428 70.0856 39.5582 70.2616 39.7068 70.4067C39.8554 70.5519 40.0337 70.6627 40.2292 70.7314C40.4247 70.8001 40.6328 70.8251 40.8389 70.8047C41.4448 70.7775 42.0392 70.6286 42.5871 70.3668C43.135 70.1049 43.6252 69.7355 44.029 69.2801ZM47.6964 73.305H44.423L44.0896 72.0167C42.8403 72.9627 41.3189 73.4738 39.7553 73.4727C37.3078 73.4727 35.8681 71.9862 35.8681 69.5546C35.8681 66.2844 38.5884 64.554 44.1502 63.8527V62.7093C44.1502 61.6498 43.4303 61.0323 42.0891 61.0323C41.4609 61.0238 40.8404 61.1726 40.2835 61.4654C39.7266 61.7581 39.2508 62.1856 38.899 62.7093L36.5879 61.2305C37.1822 60.2982 38.0131 59.5424 38.9949 59.0412C39.9766 58.54 41.0736 58.3116 42.1725 58.3796C45.5596 58.3796 47.4767 60.0261 47.4767 62.7093V71.3154C47.4988 71.9833 47.5723 72.6485 47.6964 73.305ZM61.2753 69.8671C60.8385 71.0146 60.0503 71.9927 59.0247 72.66C57.999 73.3274 56.789 73.6493 55.5695 73.5794C51.4549 73.5794 49.2878 70.98 49.2878 65.9566C49.2878 61.2076 51.705 58.3796 55.5695 58.3796C56.7884 58.3033 57.998 58.6362 59.0087 59.326C60.0194 60.0157 60.7739 61.0234 61.1541 62.191L58.267 63.4487C57.7669 61.9699 57.0168 61.2381 55.7968 61.2381C53.6827 61.2381 52.7658 62.8084 52.7658 66.1624C52.7658 69.2115 53.6827 70.6294 55.5998 70.6294C56.9637 70.6294 57.9336 69.9357 58.6308 68.4264L61.298 69.8518L61.2753 69.8671ZM66.6631 52.9827H63.2759V73.305H66.6631V68.5789L68.3301 66.597L71.5505 73.305H75.3013L70.6336 63.8528L74.9452 58.6541H71.1338L66.6631 64.5846V52.9827ZM77.4303 52.9827H79.4384V60.7656C81.0296 59.1114 82.5148 58.3491 84.3864 58.3491C86.9021 58.3491 88.3267 59.8127 88.3267 62.4273V73.305H86.3414V63.182C86.3414 61.0781 85.6973 60.1329 83.856 60.1329C83.0067 60.1692 82.1746 60.3847 81.4135 60.7656C80.6524 61.1464 79.9795 61.684 79.4384 62.3435V73.305H77.4303V52.9827ZM96.2147 60.0942C93.646 60.0942 92.1911 62.0838 92.1911 65.9409C92.1911 69.8133 93.6687 71.8409 96.2147 71.8409C98.7608 71.8409 100.216 69.8438 100.216 65.9638C100.216 62.0838 98.7835 60.0942 96.2147 60.0942ZM96.1844 73.5637C92.3957 73.5637 90.1225 70.8271 90.1225 65.9409C90.1225 61.0166 92.3957 58.3181 96.1844 58.3181C99.9732 58.3181 102.246 61.0471 102.246 65.9409C102.246 70.8347 99.9732 73.5637 96.1844 73.5637ZM104.194 58.6078H106.263V61.9542C107.24 59.5912 108.536 58.4401 110.483 58.4401C110.64 58.425 110.797 58.425 110.953 58.4401V60.4602H110.703C108.718 60.4602 107.157 62.0609 106.263 65.1024V73.3045H104.194V58.6078ZM114.891 71.192C114.163 70.7793 113.549 70.1903 113.105 69.4785V69.5089L111.483 70.8048C112.115 71.6911 112.955 72.4067 113.928 72.8881C114.901 73.3695 115.977 73.6017 117.06 73.5643C120.296 73.5643 122.281 71.7653 122.281 69.1507C122.281 67.1002 121.16 65.8348 118.735 65.0725C118.254 64.9152 117.789 64.7907 117.348 64.6724C116.378 64.4124 115.52 64.1824 114.848 63.7004C114.607 63.5282 114.412 63.299 114.28 63.0332C114.148 62.7674 114.083 62.473 114.09 62.1758C114.09 60.88 115.037 60.0338 116.553 60.0338C117.306 60.0567 118.042 60.2602 118.702 60.6275C119.361 60.9948 119.923 61.5152 120.341 62.1454L121.683 60.7961C121.055 60.0072 120.255 59.3755 119.343 58.9509C118.432 58.5262 117.435 58.3203 116.431 58.3492C113.832 58.3492 112.014 59.9805 112.014 62.3664C112.014 64.3102 113.219 65.629 115.704 66.3912C116.117 66.5173 116.506 66.628 116.867 66.7311C118.998 67.3386 120.205 67.6828 120.205 69.3641C120.205 70.8582 119.061 71.8415 117.273 71.8415C116.437 71.8279 115.618 71.6046 114.891 71.192ZM125.524 64.6145C125.638 61.6949 126.979 60.0942 129.131 60.0942C131.283 60.0942 132.594 61.7254 132.647 64.6145H125.524ZM133.625 69.1881C133.261 69.9869 132.674 70.6617 131.935 71.1301C131.196 71.5985 130.338 71.8402 129.465 71.8256C127.116 71.8256 125.494 69.9733 125.494 66.8556V66.3753H134.799V65.7579C134.799 61.0089 132.647 58.3638 129.101 58.3638C125.555 58.3638 123.403 61.1156 123.403 65.9866C123.403 70.9871 125.494 73.6093 129.268 73.6093C132.064 73.6093 133.966 72.5117 135.11 70.1486L133.625 69.1881Z" fill="#1C2024"/>
</svg>
