<svg width="192" height="116" viewBox="0 0 192 116" fill="none" xmlns="http://www.w3.org/2000/svg">
<path fill-rule="evenodd" clip-rule="evenodd" d="M137.795 39.5101C139.2 39.5101 140.429 39.8028 141.6 40.3881L139.903 44.4268C139.317 44.1341 138.498 43.9585 137.854 43.9585C135.454 43.9585 133.523 45.89 133.523 48.2898V59.6449C131.123 59.6449 129.133 57.6549 129.133 55.2551V48.8166C128.899 45.3633 126.967 42.6123 126.967 42.6123C126.967 42.6123 130.713 40.4466 130.772 40.4466C130.772 40.4466 131.181 41.0319 131.708 42.0855C133.23 40.4466 135.396 39.5101 137.795 39.5101ZM95.8284 59.5279C93.4287 59.5279 91.4386 57.5378 91.4386 55.138V33.4229H95.8284V59.5279ZM103.438 59.5279C101.038 59.5279 99.0477 57.5378 99.0477 55.138V33.4229H103.438V59.5279ZM110.461 50.8067V50.8652L120.178 45.2462L120.119 45.1877C119.039 44.2288 117.641 43.7071 116.197 43.7244C112.92 43.7244 110.286 46.3583 110.286 49.636L110.461 50.8067ZM116.256 39.5101C120.646 39.5101 124.392 42.3196 125.797 46.2412L121.992 48.4069L112.334 53.9674L112.393 54.0259C113.446 54.9624 114.793 55.4892 116.256 55.4892C118.305 55.4892 120.06 54.3186 121.173 52.7382C123.026 50.0746 125.852 51.02 126.253 51.1538L126.265 51.1579C125.445 55.8989 121.29 59.7034 116.314 59.7034C110.754 59.7034 106.189 55.1965 106.189 49.5775C106.189 44.0756 110.695 39.5101 116.256 39.5101ZM58.8366 39.5101C61.412 39.5101 63.7532 40.6222 65.3336 42.4367C66.9139 40.6222 69.2552 39.5101 71.8306 39.5101C76.6301 39.5101 80.5518 43.4317 80.5518 48.2313V59.5864C78.152 59.5864 76.1619 57.5963 76.1619 55.1965V48.2898C76.1619 45.89 74.2304 43.9585 71.8306 43.9585C69.4893 43.9585 67.5578 45.89 67.4992 48.2313V59.6449C65.0995 59.6449 63.1094 57.6549 63.1094 55.2551V48.2898C63.1094 45.9486 61.1779 44.017 58.7781 44.017C56.3783 44.017 54.4467 45.9486 54.4467 48.3484V59.7034C52.047 59.7034 50.0569 57.7134 50.0569 55.3136V48.4069C50.1154 43.4317 54.037 39.5101 58.8366 39.5101ZM83.888 48.3484C83.888 46.3583 83.4783 44.5438 82.7174 42.9635L86.7561 40.6222C87.9267 42.8464 88.2194 45.6559 88.2194 48.3484V59.5279C85.8196 59.5279 83.888 57.5963 83.888 55.1965V48.3484ZM62.4461 64.9637C62.4461 64.4666 62.8245 64.0459 63.3166 64.0459C63.8086 64.0459 64.2249 64.4666 64.2249 64.9637V70.9289C65.0197 69.6288 66.2686 68.5581 68.3502 68.5581C71.2644 68.5581 72.9297 70.5465 72.9297 73.4144V80.1444C72.9297 80.2624 72.9067 80.3792 72.862 80.4883C72.8173 80.5973 72.7518 80.6963 72.6692 80.7798C72.5866 80.8632 72.4886 80.9294 72.3807 80.9746C72.2728 81.0197 72.1571 81.043 72.0403 81.043C71.9235 81.043 71.8078 81.0197 71.6999 80.9746C71.592 80.9294 71.494 80.8632 71.4114 80.7798C71.3288 80.6963 71.2633 80.5973 71.2186 80.4883C71.1739 80.3792 71.1509 80.2624 71.1509 80.1444V73.8733C71.1509 71.6172 69.9398 70.2023 67.8204 70.2023C65.7388 70.2023 64.2249 71.7319 64.2249 73.988V80.1444C64.2249 80.2624 64.2019 80.3792 64.1572 80.4883C64.1125 80.5973 64.047 80.6963 63.9644 80.7798C63.8818 80.8632 63.7837 80.9294 63.6758 80.9746C63.5679 81.0197 63.4523 81.043 63.3355 81.043C63.2187 81.043 63.103 81.0197 62.9951 80.9746C62.8872 80.9294 62.7892 80.8632 62.7066 80.7798C62.624 80.6963 62.5585 80.5973 62.5138 80.4883C62.4691 80.3792 62.4461 80.2624 62.4461 80.1444V64.9637ZM74.1408 74.9439V74.9057C74.1408 71.4642 76.7901 68.5581 80.4234 68.5581C84.0189 68.5581 86.6682 71.426 86.6682 74.8292V74.8675C86.6682 78.3089 83.981 81.2151 80.3856 81.2151C76.7901 81.2533 74.1408 78.3854 74.1408 74.9439ZM84.8137 74.9439V74.9057C84.8137 72.3055 82.8835 70.1641 80.3477 70.1641C77.7363 70.1641 75.9575 72.3055 75.9575 74.8675V74.9057C75.9575 77.5059 77.8498 79.609 80.3856 79.609C83.0349 79.609 84.8137 77.5059 84.8137 74.9439ZM88.0307 69.6288C88.0307 69.5108 88.0537 69.3939 88.0984 69.2849C88.1431 69.1759 88.2086 69.0768 88.2912 68.9934C88.3738 68.9099 88.4718 68.8437 88.5797 68.7986C88.6876 68.7534 88.8033 68.7302 88.9201 68.7302C89.0369 68.7302 89.1525 68.7534 89.2604 68.7986C89.3684 68.8437 89.4664 68.9099 89.549 68.9934C89.6316 69.0768 89.6971 69.1759 89.7418 69.2849C89.7865 69.3939 89.8095 69.5108 89.8095 69.6288V70.8906C90.6043 69.7052 91.664 68.5963 93.6699 68.5963C95.6379 68.5963 96.8869 69.667 97.5303 71.0054C98.4008 69.667 99.6497 68.5963 101.769 68.5963C104.532 68.5963 106.235 70.47 106.235 73.4909V80.1826C106.235 80.4209 106.141 80.6495 105.975 80.818C105.808 80.9865 105.582 81.0812 105.346 81.0812C105.11 81.0812 104.884 80.9865 104.717 80.818C104.55 80.6495 104.456 80.4209 104.456 80.1826V73.8733C104.456 71.5407 103.283 70.2023 101.353 70.2023C99.5362 70.2023 98.0601 71.5789 98.0601 73.9497V80.1444C98.0601 80.6415 97.6817 81.0621 97.1518 81.0621C96.6598 81.0621 96.2813 80.6797 96.2813 80.1444V73.835C96.2813 71.5789 95.1081 70.2406 93.1779 70.2406C91.2855 70.2406 89.8473 71.8466 89.8473 74.0644V80.1826C89.8473 80.4209 89.7536 80.6495 89.5868 80.818C89.42 80.9865 89.1938 81.0812 88.9579 81.0812C88.722 81.0812 88.4958 80.9865 88.329 80.818C88.1622 80.6495 88.0685 80.4209 88.0685 80.1826V69.6288H88.0307ZM113.54 81.2533C110.247 81.2533 107.56 78.6913 107.56 74.9439V74.9057C107.56 71.426 109.982 68.5963 113.313 68.5963C116.87 68.5963 118.876 71.5407 118.876 74.7527C118.876 75.2498 118.498 75.594 118.043 75.594H109.376C109.641 78.2325 111.458 79.6855 113.615 79.6855C115.091 79.6855 116.189 79.1119 117.059 78.2707C117.211 78.156 117.362 78.0413 117.551 78.0413C118.006 78.0413 118.346 78.3854 118.346 78.806C118.346 79.0355 118.27 79.2267 118.081 79.3796C116.946 80.5268 115.583 81.2533 113.54 81.2533ZM117.097 74.2174C116.908 71.9996 115.659 70.0876 113.275 70.0876C111.193 70.0876 109.603 71.8466 109.376 74.2174H117.097ZM120.39 79.5326C120.239 79.3796 120.049 79.1119 120.049 78.806C120.049 78.3854 120.352 78.0413 120.806 78.0413C120.958 78.0413 121.185 78.1177 121.336 78.2707C122.358 79.2267 123.266 79.609 124.78 79.609C126.218 79.609 127.278 78.8443 127.278 77.6971V77.6589C127.278 76.4352 125.878 75.9764 124.288 75.5175C122.396 74.9822 120.314 74.3321 120.314 72.076V72.0378C120.314 69.9347 122.017 68.5581 124.402 68.5581C125.916 68.5581 127.202 69.1699 128.149 69.9729C128.376 70.1641 128.565 70.3935 128.565 70.7377C128.565 71.1583 128.262 71.4642 127.808 71.4642C127.467 71.4642 127.278 71.3113 127.202 71.2348C126.37 70.5083 125.348 70.0494 124.326 70.0494C122.926 70.0494 122.017 70.8142 122.017 71.8084V71.8466C122.017 72.9938 123.493 73.4526 125.121 73.9497C126.975 74.5233 128.981 75.2498 128.981 77.4294V77.4677C128.981 79.762 127.089 81.1003 124.704 81.1003C122.736 81.1386 121.185 80.412 120.39 79.5326ZM81.8979 41.5002C79.7908 38.2809 76.1033 36.3494 71.8891 36.1738C71.8891 36.1738 78.7958 32.5449 85.2928 38.5736C85.5269 38.7492 85.7025 38.9833 85.8781 39.2174L81.8979 41.5002Z" fill="#1C2024"/>
</svg>
