<svg width="192" height="116" viewBox="0 0 192 116" fill="none" xmlns="http://www.w3.org/2000/svg">
<path d="M61.2571 58.3209C61.2571 66.6973 56.5115 73.8289 49.8947 77.9485C47.2158 79.5297 44.1492 80.3311 41.04 80.2624C33.7346 80.2624 29.0381 76.7632 27.2276 73.7524C26.3657 72.3178 25.4737 70.8366 23.6987 69.7996C22.9011 69.3884 22.0448 69.1033 21.1601 68.9545C19.6392 68.5618 18.2713 67.721 17.2334 66.5408C16.5755 65.8618 14.8061 63.3402 14.6716 58.6769C14.6716 58.5552 14.6668 58.4336 14.6668 58.312C14.6639 57.293 14.726 56.2748 14.8531 55.2637L15.1533 55.3218C15.4481 59.1148 16.9454 63.0416 20.9643 63.9059C22.6274 64.2625 24.5545 64.2119 26.0784 65.0112C27.6107 65.8184 28.9124 67.0029 29.8611 68.453C33.5114 74.5265 41.4004 75.4897 47.3997 72.6163C57.6055 67.7309 61.4106 53.5811 55.8406 43.7366C55.8406 43.7366 56.0337 43.6074 56.0412 43.6047C59.4213 47.7621 61.2634 52.9606 61.2558 58.3209H61.2571ZM53.5299 40.9622C51.5222 42.1557 50.3504 44.3822 49.6652 46.6168C48.9801 48.8515 48.6791 51.1941 47.8814 53.3932C46.926 56.0125 44.6788 59.1066 41.5717 59.0956C38.4325 59.084 36.8964 55.6415 34.8525 53.7785C32.8253 51.9382 30.1703 50.9463 27.4344 51.0069C25.6744 51.0069 23.2347 51.5124 21.7415 50.3346C19.4561 48.5311 20.3473 45.1856 21.6016 43.0588C21.7305 42.8402 23.1303 40.6404 23.1324 40.6431L22.9386 40.4068C20.8081 42.0014 19.0462 44.0373 17.7732 46.3756C16.6131 48.542 16.7749 51.9093 18.4325 53.8222C19.2284 54.6677 20.2812 55.2261 21.427 55.4106C21.9524 55.5151 22.4851 55.5779 23.0204 55.5985C25.0541 55.6859 27.0597 55.3525 28.9774 56.1614C31.7753 57.3426 33.0317 60.104 34.976 62.2416C38.2237 65.8078 44.8862 65.5325 48.1932 61.3856C52.9252 55.4502 50.0659 47.4557 53.6992 41.1207L53.5299 40.9622ZM39.8416 35.4223L39.9168 35.1812C38.5587 34.7972 32.1418 34.3846 28.3782 37.89C27.8272 38.3758 27.4012 38.9874 27.1362 39.6729C26.8711 40.3585 26.775 41.0978 26.8558 41.8285C26.9891 42.512 27.3445 43.1322 27.8666 43.5925C28.3887 44.0527 29.0483 44.3273 29.7424 44.3733C30.9237 44.4491 32.6085 43.7912 33.7564 44.0836C34.9397 44.3856 35.599 45.355 36.5264 46.0867C37.4195 46.8592 38.5477 47.3059 39.727 47.3539C42.3257 47.3847 43.5957 45.4903 44.9817 43.5576C48.0608 39.272 50.7947 39.2802 51.1652 39.2905L51.224 39.0814C50.0079 38.6455 48.284 39.0356 47.07 39.3547C45.6752 39.7348 44.3742 40.3995 43.2484 41.3072C42.2664 42.0908 41.547 43.1374 40.1623 43.1825C37.7145 43.2631 38.5035 40.0481 34.357 40.5038C33.7425 40.648 33.1011 40.6306 32.4953 40.4532C32.2461 40.3408 32.0297 40.1664 31.8669 39.9466C31.704 39.7268 31.6002 39.4689 31.5651 39.1976C31.3734 37.5743 33.6603 36.3699 34.9323 35.9901C35.0763 35.9463 35.2216 35.9094 35.3677 35.8753L35.3902 35.8705C36.8486 35.5361 38.3432 35.3855 39.839 35.4223H39.8416ZM70.8391 56.3957H73.9782L76.8296 44.6752H76.9189L79.7339 56.3957H82.8731L86.621 41.8927H84.0209L81.296 53.3447H81.2059L78.4448 41.8927H75.3786L72.6175 53.3447H72.528L69.767 41.8927H67.0952L70.8391 56.3957ZM91.3312 45.3932C92.4507 45.397 93.5439 45.7328 94.4728 46.3582C95.4018 46.9835 96.1248 47.8704 96.5506 48.9069C96.9764 49.9433 97.0857 51.0828 96.865 52.1815C96.6443 53.2802 96.1034 54.2887 95.3105 55.0798C94.5176 55.8709 93.5083 56.4091 92.41 56.6263C91.3118 56.8436 90.174 56.7302 89.1402 56.3004C88.1063 55.8707 87.2227 55.1439 86.6012 54.2118C85.9796 53.2798 85.6479 52.1842 85.6479 51.0636C85.6228 50.3105 85.7529 49.5604 86.0299 48.8598C86.3069 48.1593 86.7249 47.5233 87.258 46.9914C87.7911 46.4595 88.4278 46.0432 89.1285 45.7682C89.8292 45.4933 90.5791 45.3656 91.3312 45.3932V45.3932ZM91.3312 54.7083C93.429 54.7083 94.4512 53.0926 94.4512 51.0649C94.4512 49.0373 93.4277 47.4209 91.3312 47.4209C89.2348 47.4209 88.2118 49.0366 88.2118 51.0649C88.2118 53.0933 89.2355 54.7083 91.3312 54.7083ZM103.54 45.3932C104.659 45.397 105.752 45.7328 106.681 46.3582C107.61 46.9835 108.333 47.8704 108.759 48.9069C109.185 49.9433 109.294 51.0828 109.074 52.1815C108.853 53.2802 108.312 54.2887 107.519 55.0798C106.726 55.8709 105.717 56.4091 104.619 56.6263C103.521 56.8436 102.383 56.7302 101.349 56.3004C100.315 55.8707 99.4314 55.1439 98.8098 54.2118C98.1883 53.2798 97.8567 52.1842 97.8567 51.0636C97.8316 50.3105 97.9615 49.5604 98.2385 48.8598C98.5155 48.1593 98.9337 47.5233 99.4668 46.9914C99.9999 46.4595 100.637 46.0432 101.337 45.7682C102.038 45.4933 102.788 45.3656 103.54 45.3932V45.3932ZM103.54 54.7083C105.638 54.7083 106.66 53.0926 106.66 51.0649C106.66 49.0373 105.636 47.4209 103.54 47.4209C101.443 47.4209 100.42 49.0366 100.42 51.0649C100.42 53.0933 101.444 54.7083 103.54 54.7083ZM112.934 41.8927H110.409V56.3957H112.934V41.8927ZM116.86 56.3957H119.568L121.863 48.3001H121.953L124.283 56.3957H126.972L130.361 45.7164H127.779L125.52 53.4519H125.431L123.261 45.7164H120.644L118.474 53.4519H118.385L116.151 45.7137H113.479L116.86 56.3957ZM135.886 45.3905C137.006 45.3943 138.099 45.7301 139.028 46.3554C139.957 46.9808 140.68 47.8677 141.106 48.9041C141.532 49.9406 141.641 51.0801 141.42 52.1787C141.2 53.2774 140.659 54.286 139.866 55.0771C139.073 55.8682 138.064 56.4063 136.965 56.6236C135.867 56.8408 134.729 56.7274 133.695 56.2977C132.661 55.868 131.778 55.1412 131.156 54.2091C130.535 53.277 130.203 52.1815 130.203 51.0608C130.178 50.3078 130.308 49.5577 130.585 48.8571C130.862 48.1565 131.28 47.5205 131.813 46.9887C132.346 46.4568 132.983 46.0404 133.684 45.7655C134.385 45.4906 135.134 45.3629 135.886 45.3905V45.3905ZM135.886 54.7056C137.984 54.7056 139.006 53.0899 139.006 51.0622C139.006 49.0346 137.983 47.4182 135.886 47.4182C133.79 47.4182 132.767 49.0339 132.767 51.0622C132.767 53.0905 133.791 54.7056 135.886 54.7056ZM150.372 53.8079C150.347 54.1539 150.396 54.5014 150.516 54.8267C150.637 55.1519 150.826 55.4473 151.071 55.6927C151.316 55.938 151.611 56.1275 151.936 56.2483C152.261 56.369 152.608 56.4182 152.954 56.3923H155.912V54.3811H153.851C153.712 54.4011 153.57 54.3884 153.437 54.3439C153.303 54.2995 153.182 54.2246 153.083 54.1251C152.983 54.0257 152.909 53.9044 152.864 53.771C152.82 53.6375 152.807 53.4955 152.827 53.3563V47.7201H155.911V45.713H152.827V42.9311H150.37V45.713H149.385C146.947 45.713 145.925 46.3961 145.369 49.0516H145.279V45.713H142.751V56.3923H145.279V52.2291C145.279 49.2313 146.606 47.7201 148.847 47.7201H150.371V53.8045L150.372 53.8079ZM163.764 45.3687C162.847 45.3497 161.953 45.6567 161.241 46.235C160.529 46.8134 160.045 47.6257 159.874 48.5276H159.748V41.8899H157.22V56.393H159.748V50.8463C159.748 48.9259 160.698 47.3826 162.563 47.3826C163.928 47.3826 165.127 48.1341 165.127 50.1645V56.393H167.652V49.4103C167.652 47.1135 166.2 45.3721 163.762 45.3721L163.764 45.3687ZM168.698 52.9286C169.003 55.3341 170.903 56.7339 173.862 56.7339C176.748 56.7339 178.667 55.3881 178.667 53.1814C178.667 51.6374 177.771 50.5785 176.013 50.2916L172.858 49.771C171.818 49.5913 171.37 49.2149 171.37 48.5324C171.37 47.7249 172.141 47.2761 173.647 47.2761C175.117 47.2761 175.906 47.9223 176.049 49.0523H178.487C178.308 46.7186 176.587 45.3727 173.647 45.3727C170.813 45.3727 169.003 46.6475 169.003 48.6936C169.003 50.2369 169.97 51.4216 171.836 51.7269L174.866 52.2113C175.87 52.3732 176.299 52.7141 176.299 53.4137C176.299 54.3298 175.402 54.832 173.95 54.832C172.39 54.832 171.422 54.1857 171.135 52.9293H168.698V52.9286ZM79.4535 70.3031V73.7148H81.8017V66.1022H74.5407V68.1306H79.2556V68.5405C79.2556 70.5511 77.4088 72.0042 75.1138 72.0042C71.9746 72.0042 70.0762 69.7791 70.0762 66.4582C70.0762 63.4249 71.7071 60.9122 75.0067 60.9122C77.4266 60.9122 78.8284 62.2785 79.1484 64.1607H81.6734C81.1534 60.8937 78.5718 58.8661 75.004 58.8661C70.3423 58.8661 67.5266 62.1146 67.5266 66.4582C67.5266 70.8558 70.4856 74.0503 74.2328 74.0503C76.9038 74.0503 78.6974 72.7222 79.3607 70.2997L79.4535 70.3031ZM85.9419 66.4261V63.0334H83.417V73.7148H85.9419V69.5475C85.9419 66.5504 87.0892 65.0242 89.1495 65.0242H90.0462V62.9064H89.5077C87.4283 62.9064 86.5855 63.5895 86.0272 66.4247L85.9419 66.4261ZM95.7492 62.7103C96.8686 62.7142 97.9618 63.0501 98.8906 63.6755C99.8195 64.301 100.542 65.1879 100.968 66.2244C101.394 67.2608 101.503 68.4003 101.282 69.4989C101.062 70.5976 100.521 71.6061 99.7277 72.3971C98.9347 73.1881 97.9254 73.7262 96.8272 73.9434C95.729 74.1606 94.5911 74.0472 93.5573 73.6174C92.5235 73.1877 91.64 72.4609 91.0185 71.5288C90.397 70.5968 90.0652 69.5013 90.0652 68.3806C90.0401 67.6275 90.1703 66.8773 90.4474 66.1767C90.7244 65.4761 91.1425 64.8401 91.6756 64.3082C92.2088 63.7763 92.8457 63.36 93.5465 63.0851C94.2473 62.8102 94.997 62.6826 95.7492 62.7103V62.7103ZM95.7492 72.026C97.847 72.026 98.8686 70.4103 98.8686 68.382C98.8686 66.3537 97.845 64.7386 95.7492 64.7386C93.6535 64.7386 92.6291 66.3543 92.6291 68.382C92.6291 70.4097 93.6528 72.026 95.7492 72.026ZM110.504 68.5794C110.504 70.4828 109.553 72.026 107.706 72.026C106 72.026 105.142 70.9664 105.142 69.2619V63.0334H102.617V70.0155C102.58 70.5448 102.654 71.0761 102.835 71.5747C103.017 72.0733 103.301 72.5281 103.67 72.9092C104.039 73.2904 104.484 73.5893 104.976 73.7867C105.468 73.984 105.996 74.0752 106.526 74.0544C107.442 74.0776 108.337 73.7692 109.045 73.1855C109.753 72.6019 110.227 71.7823 110.381 70.8769H110.506V73.7148H113.031V63.0328H110.506V68.5788L110.504 68.5794ZM121.209 62.6919C124.311 62.6919 125.849 65.4375 125.849 68.3991C125.849 71.5765 124.128 74.053 121.209 74.053C120.32 74.0439 119.457 73.7496 118.747 73.2134C118.037 72.6772 117.517 71.9272 117.264 71.0737H117.175V77.5351H114.65V63.0328H117.175V65.6889H117.264C117.514 64.832 118.032 64.0781 118.742 63.5385C119.452 62.9988 120.317 62.702 121.209 62.6919V62.6919ZM120.223 72.1879C122.285 72.1879 123.307 70.48 123.307 68.4004C123.307 66.3004 122.32 64.5596 120.223 64.5596C119.808 64.556 119.396 64.6378 119.014 64.8C118.632 64.9621 118.288 65.2012 118.002 65.5023C117.716 65.8035 117.495 66.1602 117.353 66.5504C117.211 66.9406 117.15 67.3559 117.175 67.7706V68.9914C117.149 69.4055 117.209 69.8206 117.351 70.2104C117.493 70.6003 117.714 70.9565 118 71.2565C118.287 71.5566 118.632 71.7941 119.014 71.9541C119.397 72.114 119.808 72.1929 120.223 72.1859" fill="#1C2024"/>
</svg>
