<svg width="192" height="116" viewBox="0 0 192 116" fill="none" xmlns="http://www.w3.org/2000/svg">
<path d="M29.5851 40.469H19.7958V41.2616H22.9695V57.4C22.9695 62.2946 21.6474 63.6167 18.6061 63.6167C16.7545 63.6167 16.3573 62.1623 16.3573 61.5004C16.3573 59.7811 16.225 58.5914 14.6364 58.5914C13.0495 58.5914 12.7865 60.1783 12.7865 60.7078C12.7865 62.9565 13.8438 64.6758 18.209 64.6758C23.5007 64.6758 26.2773 62.9565 26.2773 57.0046V41.2599H29.4527V40.469H29.5851V40.469ZM30.9089 60.9709C30.3794 60.9709 29.8499 61.1066 29.5851 61.5004C29.188 61.8975 29.0556 62.2946 29.0556 62.8242C29.0556 63.3503 29.188 63.7491 29.5851 64.148C29.9823 64.5434 30.3794 64.6741 30.9089 64.6741C31.4367 64.6741 31.8339 64.5417 32.231 64.148C32.6281 63.7508 32.7605 63.3503 32.7605 62.8242C32.7605 62.2946 32.6281 61.8975 32.231 61.5004C31.8339 61.1032 31.4367 60.9709 30.9072 60.9709H30.9089ZM52.6022 60.9709C52.0727 60.9709 51.6755 61.1066 51.2784 61.5004C50.883 61.8975 50.7506 62.2946 50.7506 62.8242C50.7506 63.3503 50.883 63.7491 51.2784 64.148C51.6755 64.5434 52.0727 64.6741 52.6022 64.6741C53.1317 64.6741 53.6595 64.5417 53.926 64.148C54.3214 63.7491 54.4538 63.3503 54.4538 62.8242C54.4538 62.2946 54.3214 61.8975 53.9243 61.5004C53.5272 61.1032 53.1317 60.9709 52.6005 60.9709H52.6022ZM45.7219 40.469H36.1973V41.2616H38.9756V59.7828C38.9756 61.2373 38.8432 61.6328 38.7108 62.0299C38.5784 62.5611 38.1813 62.8259 37.5194 63.0906C37.124 63.223 36.4621 63.3537 35.5354 63.3537V64.148H45.8542V63.3537C44.9276 63.3537 44.2674 63.223 43.8685 63.0906C43.2083 62.8259 42.8112 62.4287 42.6805 62.0316C42.5039 61.567 42.4136 61.0741 42.4141 60.5771V54.2246H44.9276C52.3357 54.2246 54.4521 51.3156 54.4521 47.3459C54.4521 43.2456 53.2624 40.4673 45.7219 40.4673V40.469ZM44.3981 53.2996H42.4141V41.3939H44.135C49.8222 41.3939 51.1443 43.7751 51.1443 47.4783C51.1443 51.3139 48.8973 53.2996 44.3981 53.2996V53.2996ZM85.0098 61.8975C84.8353 61.3866 84.7458 60.8505 84.745 60.3107V41.2616H87.2568V40.469H81.1758C81.0435 40.7337 73.9017 58.459 73.9017 58.459L73.7694 58.5931C73.637 58.5931 73.637 58.5931 73.637 58.4607C73.637 58.4607 65.9658 40.6014 65.9658 40.469H59.2144V41.2633H62.125V61.3697C62.125 61.7685 61.9927 62.1657 61.7279 62.5611C61.4632 62.9582 61.066 63.223 60.6689 63.3537C60.4041 63.4895 59.8763 63.4895 59.3451 63.4895V64.2803H65.9607V63.4861C65.4311 63.4861 65.1664 63.3537 64.7709 63.3537C64.2414 63.2213 63.9767 62.9565 63.7119 62.5594C63.4472 62.2946 63.3148 61.8975 63.3148 61.3697L63.1824 59.6488V43.7734H63.5795C63.5795 43.7734 72.1774 63.8798 72.3098 64.1446H72.9717L81.1724 43.9075H81.4372V60.3107C81.4372 60.9725 81.3048 61.5004 81.1724 62.0299C81.0401 62.5594 80.6446 62.8242 80.1151 63.0889C79.5609 63.2727 78.9797 63.3617 78.3959 63.352V64.1463H87.6557V63.352C87.0713 63.3618 86.4895 63.2728 85.9347 63.0889C85.5393 62.8242 85.1421 62.427 85.0098 61.8975V61.8975ZM97.5756 46.8181C92.5486 46.8181 89.5073 50.1242 89.5073 55.8131C89.5073 64.2786 96.1212 64.8082 97.4433 64.8082C100.222 64.8082 105.513 63.0889 105.513 55.6825C105.513 49.8611 102.073 46.8181 97.5756 46.8181V46.8181ZM97.4433 63.7491C93.74 63.7491 93.0781 61.8992 93.0781 55.9455C93.0781 51.3156 93.3429 47.8755 97.4433 47.8755C101.808 47.8755 101.808 51.4463 101.808 55.6791C101.808 61.6328 100.751 63.7491 97.4433 63.7491ZM118.478 47.0829C115.566 47.0829 114.51 48.8021 113.714 50.6537H113.449C113.449 50.6537 113.054 48.0078 112.921 47.3459H107.1V48.2726H110.274V59.9135C110.274 61.1032 110.143 61.8992 109.88 62.4253C109.614 62.9565 108.819 63.352 107.63 63.352H107.1V64.411H116.889V63.352H116.36C115.036 63.352 114.51 63.0889 114.242 62.5594C113.979 62.0299 113.846 61.2356 113.846 60.0459V53.6968C113.846 51.7111 115.433 49.3316 117.287 49.3316C119.271 49.3316 119.137 52.2406 121.387 51.0509C122.446 50.389 122.181 47.0829 118.478 47.0829V47.0829ZM156.97 62.4253C155.911 62.4253 155.648 61.8992 155.516 60.8402V51.5804C155.516 49.9918 155.249 49.0669 154.326 48.1385C153.399 47.2136 151.678 46.8147 149.166 46.8147C146.785 46.8147 145.066 47.2136 143.875 48.1385C142.817 48.9345 142.289 49.7271 142.289 50.9185C142.289 51.4446 142.422 51.8434 142.685 51.9758C142.95 52.2406 143.347 52.373 143.742 52.373C144.667 52.373 145.198 51.8468 145.461 50.6537C145.597 49.7271 145.859 49.1992 146.257 48.668C146.784 48.1419 147.581 47.8755 148.504 47.8755C149.696 47.8755 150.621 48.1385 151.018 48.8004C151.415 49.4623 151.68 50.2566 151.68 51.3122V54.0922C148.635 54.357 141.229 55.0172 141.626 60.5737C141.758 62.6901 143.612 64.6741 146.123 64.6741C148.902 64.6741 150.619 63.0889 151.809 61.8958C151.943 63.0872 153.133 64.5434 155.118 64.5434C157.365 64.5434 158.689 63.4844 158.823 60.7061H158.294C158.294 61.7651 157.632 62.427 156.97 62.427V62.4253ZM151.945 60.5754V60.7078L151.812 60.8402C150.225 62.2963 148.903 62.8259 147.977 62.8259C145.596 62.8259 145.198 60.8402 145.198 59.9152C145.198 56.7415 149.564 55.1529 151.945 55.1529V60.5754V60.5754ZM176.813 62.2947C176.549 61.7668 176.151 60.9709 176.151 59.7828V52.1082C176.151 51.0509 176.019 49.9918 175.622 49.3316C175.225 48.5374 174.565 48.0078 173.903 47.6107C173.108 47.2136 172.316 47.0829 171.391 47.0829C167.951 47.0829 166.627 49.1992 165.834 50.389H165.57L164.908 47.3459H159.616V48.2726H162.263V59.9135C162.263 60.8402 162.129 61.5004 161.997 61.8992C161.863 62.4253 161.471 62.8242 161.072 62.9565C160.807 63.0889 160.278 63.2213 159.616 63.2213V64.2786H167.949V63.2213C167.155 63.0889 166.493 62.9565 166.23 62.5594C165.965 62.1623 165.702 61.368 165.702 60.1783V55.6808C165.702 53.8308 165.702 51.9758 166.364 50.9185C167.024 49.7271 168.346 49.0669 169.67 49.0669C170.994 49.0669 171.654 49.464 172.053 50.2566C172.448 50.9185 172.579 52.9025 172.579 54.2246V59.7811C172.579 60.7061 172.715 61.368 172.579 61.7668C172.448 62.293 172.316 62.6918 171.917 62.9549C171.654 63.2213 171.123 63.2213 170.595 63.352V64.411H178.667V63.352C177.738 62.9565 177.078 62.6901 176.813 62.2947V62.2947ZM138.982 46.0238C138.452 46.1562 138.187 46.6857 137.923 47.3476C137.79 48.0095 137.525 48.405 137.128 48.5357C136.731 48.6697 136.336 48.6697 135.939 48.405C135.014 47.6107 133.425 46.6857 130.514 46.6857C125.752 46.6857 123.768 49.9918 123.768 53.0332C123.768 56.6057 125.092 58.3267 128.132 58.9869C128.266 58.9869 128.266 59.2516 128.132 59.2516C125.62 59.7811 123.239 60.5754 123.239 62.9565C123.239 64.4127 124.033 65.2053 125.224 65.7348C126.412 66.2626 128.132 66.5291 130.25 66.5291C132.1 66.5291 133.423 66.6615 134.218 66.6615C135.015 66.7643 135.781 67.035 136.466 67.4558C136.996 67.8529 137.261 68.5148 137.261 69.3057C137.261 70.4971 136.599 71.2914 135.409 72.0857C134.221 72.7476 132.761 73.0123 130.779 73.0123C129.192 73.0123 127.738 72.8782 126.546 72.0857C125.621 71.5561 125.487 70.4988 125.621 69.7045C125.756 68.9102 125.487 68.1177 124.562 67.8529C124.281 67.7908 123.987 67.8218 123.725 67.9412C123.462 68.0606 123.246 68.2618 123.108 68.5148C122.841 68.9085 122.709 69.4381 122.709 70.1C122.709 72.084 124.298 73.0089 125.487 73.4061C127.339 73.9339 128.532 74.068 130.117 74.068C132.368 74.068 134.085 73.6708 135.409 73.1413C136.733 72.4794 137.527 71.6868 138.055 70.7602C138.583 69.8352 138.849 68.9085 138.849 67.9819C138.849 66.7922 138.583 65.7331 138.055 65.0729C136.336 62.8242 133.953 63.0872 128.663 62.8242C126.149 62.8242 125.62 62.2946 125.62 61.5004C125.62 60.3107 126.546 59.9135 130.25 59.2516C133.953 58.7221 137.391 57.2676 137.391 52.9025C137.391 51.5787 137.128 50.5213 136.729 49.7288C137.525 49.8595 138.187 49.8595 138.848 49.7288C139.644 49.464 140.037 49.0669 140.304 48.6697C140.568 48.1402 140.699 47.6107 140.436 47.2136C140.568 46.1562 139.907 45.7591 138.982 46.0238V46.0238ZM130.648 58.459C128.401 58.459 127.208 57.6631 127.208 53.1672C127.208 49.9935 128.267 47.6107 130.648 47.6107C133.427 47.6107 134.219 49.7271 134.219 53.0349C134.219 57.7971 132.765 58.459 130.648 58.459Z" fill="#1C2024"/>
</svg>
