<svg width="192" height="116" viewBox="0 0 192 116" fill="none" xmlns="http://www.w3.org/2000/svg">
<path fill-rule="evenodd" clip-rule="evenodd" d="M136.459 76.5342C138.498 77.1678 142.579 77.7006 145.806 77.7006C154.398 77.7006 160 73.3211 160 66.1182C160 59.6059 156.439 57.1259 150.741 54.6432C146.613 52.7941 144.715 51.8211 144.715 49.1913C144.715 46.6145 146.423 45.1047 150.268 45.1047C153.495 45.1047 156.153 46.0789 157.53 46.857L159.096 40.244C157.055 39.5627 153.637 38.8813 150.268 38.8813C142.341 38.8813 137.123 42.6233 137.123 49.3875C137.123 56.2961 141.061 58.633 145.806 60.5311C150.457 62.3763 152.119 63.833 152.119 66.6047C152.119 69.8668 149.414 71.472 145.806 71.472C142.816 71.472 139.54 70.4023 138.074 69.7197L136.459 76.5342ZM115.957 60.6756H120.321C124.357 60.6756 126.966 62.3763 126.966 66.0731C126.966 70.1093 124.167 71.5688 120.558 71.5688H115.957V60.6756ZM115.957 45.1551H120.368C123.881 45.1551 125.78 46.7099 125.78 49.923C125.78 53.3296 123.122 55.0329 120.035 55.0329H115.957V45.1551ZM108.79 77.3627H120.748C129.578 77.3627 134.561 72.7379 134.561 66.1182C134.561 61.1131 131.476 58.4381 127.678 57.4161C130.431 56.2961 133.327 53.7684 133.327 49.2907C133.327 42.9653 128.581 39.3678 121.365 39.3678H108.79V77.3627ZM86.8176 45.2028H90.4729C94.2652 45.2028 96.3068 47.3912 96.3068 50.652C96.3068 54.3502 93.5114 56.0535 89.6661 56.0535H86.8176V45.2028ZM88.7157 61.6472C91.0909 65.4382 95.1199 72.7379 97.3515 77.3627H105.848C103.475 72.3973 98.7285 63.9298 96.2615 60.4821C100.104 59.1672 103.76 55.9554 103.76 50.7487C103.76 43.1588 99.1552 39.3678 91.4232 39.3678H79.6972V77.3627H86.8176V61.6472H88.7157ZM60.0991 57.6115H66.1269C67.7897 57.6115 69.1641 56.1998 69.1641 54.4952C69.1641 52.7945 67.7897 51.3829 66.1269 51.3829H61.3791L68.2629 44.3761C69.4498 43.158 69.4498 41.163 68.2629 39.9528C67.0759 38.7347 65.1779 38.7347 63.9909 39.9528L57.014 47.1001L57.0606 42.1373C57.0606 40.3413 55.7314 39.0767 54.0699 39.0767C52.4097 39.0767 51.0327 40.4393 51.0327 42.1373V48.3183C51.0327 49.6809 51.8874 50.7983 53.0265 51.2357C53.0265 51.2357 56.1593 52.4049 57.2506 55.6656C57.6295 56.8321 58.8177 57.6115 60.0991 57.6115ZM61.2382 65.0503L66.0791 65.098C67.8841 65.098 69.1176 63.7354 69.1176 62.0361C69.1176 60.3368 67.7406 58.9238 66.0791 58.9238H60.0512C58.7699 58.9238 57.6295 59.7999 57.2028 60.9664C57.2028 60.9664 56.1115 64.1728 52.9321 65.2929C51.7917 65.68 50.9849 66.8981 50.9849 68.2131V74.3913C50.9849 76.0959 52.3619 77.5076 54.0221 77.5076C55.6848 77.5076 57.0606 76.2417 57.0606 74.3913V69.5266L63.9444 76.5837C65.13 77.7992 67.0294 77.7992 68.2151 76.5837C69.402 75.3656 69.402 73.4197 68.2151 72.2029L61.2382 65.0503ZM43.7261 74.3913C43.6796 76.3385 45.0088 77.4586 46.6702 77.4586C48.3782 77.4586 49.7087 76.0959 49.7087 74.3913V68.2131C49.7087 66.8504 48.8993 65.7303 47.7136 65.2929C47.7136 65.2929 44.6286 64.1728 43.5373 60.8697C43.1107 59.7032 41.9703 58.9238 40.6902 58.9238H34.6611C32.9517 58.9238 31.6239 60.3368 31.6239 62.0361C31.6239 63.7354 32.9517 65.1458 34.6611 65.1458H39.3597L32.5264 72.2029C31.3381 73.3693 31.3381 75.3656 32.5264 76.5837C33.6642 77.7992 35.6114 77.7992 36.797 76.5837L43.7739 69.4285L43.7261 74.3913ZM43.4895 55.6153C43.4895 55.6153 44.5808 52.4539 47.7615 51.2861C48.8993 50.8951 49.6596 49.6809 49.6596 48.3646V42.1864C49.6596 40.4884 48.3304 39.0767 46.6702 39.0767C44.9609 39.0767 43.6317 40.4884 43.6317 42.1864V47.0523L36.7492 40.0006C35.5623 38.7838 33.6642 38.7838 32.4772 40.0006C31.2903 41.2135 31.2903 43.158 32.4772 44.3761L39.4567 51.5286L34.6132 51.4809C32.7151 51.4809 31.576 52.8436 31.576 54.5456C31.576 56.2488 32.9517 57.6605 34.6132 57.6605H40.6411C41.9237 57.6605 43.0615 56.7831 43.4895 55.6153Z" fill="#1C2024"/>
</svg>
