<svg width="192" height="116" viewBox="0 0 192 116" fill="none" xmlns="http://www.w3.org/2000/svg">
<path fill-rule="evenodd" clip-rule="evenodd" d="M20.7795 75.1361H31.6263C34.7998 75.1361 41.4031 75.1361 42.4496 68.7277C43.1846 64.2229 39.7452 60.9758 36.5858 58.9938H42.0528V40.4668H31.227C28.0573 40.4668 21.4611 40.4668 20.4152 46.8755C19.6808 51.3805 23.1276 54.6274 26.2945 56.6094H20.7795V75.1361ZM31.6263 72.7517H23.1644V58.9948H31.2337C32.5751 59.501 40.9831 62.9071 40.0956 68.3437C39.571 71.5572 37.2757 72.7517 31.6263 72.7517ZM39.6678 56.6099H31.6556L31.6559 56.6094C30.3131 56.1059 21.879 52.7123 22.7689 47.26C23.2932 44.0467 25.5859 42.852 31.227 42.852H39.6678V56.6099ZM65.6187 47.8532H63.2343L63.2338 65.0467H65.6411V57.9397C65.6368 57.5512 65.7106 57.1657 65.858 56.8063C66.0054 56.4469 66.2235 56.1209 66.4993 55.8471C66.7751 55.5737 67.103 55.3583 67.4637 55.2138C67.8243 55.0692 68.2102 54.9987 68.5986 55.0062C68.9646 54.9994 69.3281 55.0677 69.6668 55.2067C70.0054 55.3458 70.3119 55.5526 70.5675 55.8146C70.8231 56.0766 71.0224 56.3883 71.1529 56.7303C71.2835 57.0722 71.3427 57.4374 71.3268 57.803V65.0474H73.7339V57.3444C73.7339 54.7536 72.0375 52.7592 69.3093 52.7592C67.5212 52.7592 66.283 53.6751 65.7787 54.6619H65.6187V47.8532ZM53.8063 61.4936H51.5365C51.6965 63.8091 53.3006 65.3454 56.3512 65.3462C59.3549 65.3462 61.2118 63.7643 61.2118 61.4946C61.2118 58.5406 58.8176 58.1353 56.8084 57.7952L56.8082 57.7952L56.808 57.7952C55.3557 57.5493 54.1047 57.3376 54.1047 56.2217C54.1047 55.3273 54.953 54.6854 56.3056 54.6854C57.7497 54.6854 58.5292 55.3502 58.6668 56.3592H60.8678C60.6843 54.0658 58.8044 52.7589 56.3971 52.7589C53.646 52.7589 51.8579 54.2491 51.8579 56.2667C51.8579 59.0176 54.0842 59.4333 56.0285 59.7963L56.0287 59.7963L56.0291 59.7964C57.5359 60.0779 58.8732 60.3277 58.8732 61.6084C58.8732 62.6629 58.0017 63.3736 56.4198 63.3736C54.861 63.3736 53.9663 62.7314 53.8063 61.4936ZM112.162 65.0474V63.351H112.323C112.748 63.9773 113.323 64.4875 113.996 64.836C114.668 65.1842 115.417 65.3592 116.174 65.3454C119.636 65.3454 121.997 62.8007 121.997 59.0867C121.997 55.3726 119.636 52.7592 116.312 52.7592C115.536 52.7436 114.769 52.922 114.081 53.2785C113.392 53.6348 112.803 54.1577 112.368 54.7997H112.231V47.8532H109.823V65.0474H112.162ZM115.875 54.9604C118.053 54.9604 119.544 56.6566 119.544 59.0638C119.544 61.5629 118.053 63.1674 115.829 63.1674C113.537 63.1674 112.161 61.3334 112.161 59.0638C112.161 56.4732 113.766 54.9604 115.875 54.9604ZM81.3701 52.7589C78.0229 52.7589 75.6614 55.3724 75.6614 59.0864C75.6614 62.8007 78.0456 65.3456 81.4845 65.3459C82.2447 65.3587 82.9963 65.1834 83.6724 64.8355C84.3484 64.4873 84.9279 63.9776 85.3591 63.3512H85.4967V65.048H87.8574V53.0571H85.4503V54.7997H85.2903C84.8607 54.1577 84.2764 53.6343 83.5913 53.2777C82.9062 52.9209 82.1423 52.7425 81.3701 52.7589ZM81.8055 54.9601C83.9147 54.9601 85.5196 56.473 85.5194 59.0635C85.5194 61.3337 84.122 63.1674 81.8285 63.1674C79.6276 63.1674 78.1144 61.5626 78.1144 59.0635C78.1144 56.6568 79.6276 54.9601 81.8055 54.9601ZM91.94 53.0569H89.3948L92.9267 65.0472H95.7912L98.6111 56.1519H98.7487L101.546 65.0472H104.434L107.988 53.0569H105.42L102.967 62.204H102.807L99.964 53.0569H97.4193L94.5535 62.204H94.3935L91.94 53.0569ZM126.25 53.0569H123.934L123.934 65.0477H126.341V59.1328C126.341 56.9087 127.51 55.3726 129.551 55.3726H130.674V53.0342H129.62C128.936 53.029 128.266 53.2267 127.695 53.602C127.124 53.9775 126.677 54.5137 126.41 55.1432H126.25V53.0569ZM164.362 59.3846L167.755 65.0472L170.483 65.0474L166.013 57.5965L170.186 53.0571H167.182L162.643 58.1697H162.505V47.8532H160.098V65.0474H162.505V61.4251L164.362 59.3846ZM137.828 52.7587C134.137 52.7587 131.478 55.463 131.478 59.0632C131.478 62.6629 134.114 65.3454 137.805 65.3451C141.473 65.3451 144.133 62.6397 144.133 59.0632C144.133 55.487 141.519 52.7587 137.828 52.7587ZM137.805 54.9599C140.075 54.9599 141.68 56.6792 141.68 59.0632C141.68 61.4248 140.075 63.1671 137.805 63.1671C135.557 63.1671 133.931 61.448 133.931 59.0632C133.931 56.7021 135.536 54.9599 137.805 54.9599ZM145.51 59.0632C145.51 55.463 148.169 52.7587 151.86 52.7587C155.551 52.7587 158.164 55.4872 158.164 59.0632C158.164 62.6395 155.504 65.3451 151.836 65.3451C148.146 65.3454 145.51 62.6629 145.51 59.0632ZM155.712 59.0632C155.712 56.6792 154.107 54.9599 151.837 54.9599C149.567 54.9599 147.963 56.7021 147.963 59.0632C147.963 61.448 149.589 63.1671 151.837 63.1671C154.107 63.1671 155.712 61.4248 155.712 59.0632Z" fill="#1C2024"/>
</svg>
