<svg width="192" height="116" viewBox="0 0 192 116" fill="none" xmlns="http://www.w3.org/2000/svg">
<path d="M83.9324 83.932H89.1496V89.0001H83.9324V83.932ZM101.056 89.0001H114.092V83.932H101.056V89.0001ZM72 68.3831H97.7046V63.315H72V68.3831ZM92.5006 89.0001H97.7178V71.6384H92.5006V89.0001ZM89.1365 49.8726V41.8172L73.9449 60.0597H80.6603L89.1365 49.8725V49.8726ZM101.831 26.6001L101.056 27.5321V35.5874L105.892 29.7789L101.831 26.6002V26.6001ZM109.624 63.3149V68.383H118.56V63.3149H109.624ZM106.273 34.4895L101.056 40.7447V80.6766H106.273V34.4896V34.4895ZM92.5006 60.0596H97.7178V31.5408L92.5006 37.7959V60.0597V60.0596Z" fill="#1C2024"/>
</svg>
