<svg width="192" height="116" viewBox="0 0 192 116" fill="none" xmlns="http://www.w3.org/2000/svg">
<path d="M91.3055 68.9807C91.3055 71.5527 90.266 73.0127 85.1096 73.0127C84.4317 73.0127 83.8426 72.9733 83.2558 72.8944V38.8787C83.2558 36.2974 84.1588 33.6001 89.3607 33.6001C90.0408 33.6001 90.6732 33.6581 91.3055 33.7974V68.9807ZM80.2693 63.8298C80.2693 68.6116 77.0576 72.1098 70.5432 72.7945C65.7938 73.289 58.9178 72.7109 55.6629 72.3512C55.5264 71.8335 55.4355 71.1905 55.4355 70.6729C55.4355 66.4946 57.7419 65.529 59.9596 65.529C62.2205 65.529 65.7938 65.9282 68.4642 65.9282C71.3575 65.9282 72.2628 64.9719 72.2628 64.0526C72.2628 62.8503 71.0868 62.3512 68.8259 61.9357L62.5822 60.7727C57.4257 59.8094 54.6667 56.3531 54.6667 52.6761C54.6667 48.1915 57.9239 44.4473 64.3472 43.7672C69.1875 43.2496 75.1128 43.8276 78.37 44.2105C78.5042 44.7491 78.5497 45.2714 78.5497 45.8099C78.5497 49.9928 76.2888 50.8957 74.071 50.8957C72.4447 50.8957 69.8199 50.594 66.8356 50.594C63.8036 50.594 62.5367 51.4088 62.5367 52.3907C62.5367 53.433 63.7581 53.8507 65.6142 54.1873L71.5849 55.2482C77.6467 56.3275 80.2693 59.691 80.2693 63.8298ZM112.928 82.1468C113.608 82.4927 114.963 82.8873 116.728 82.9314C119.713 82.9872 121.341 81.8915 122.563 79.2708L138.667 44.4868C138.034 44.1479 136.54 43.7626 135.318 43.7487C133.283 43.7046 130.478 44.1038 128.715 48.2032L123.513 60.1251L113.289 44.004C112.611 43.8067 111.028 43.5304 109.852 43.5304C106.234 43.5304 104.198 44.8095 102.117 47.0077L92.2108 57.5508L100.172 69.7258C101.666 71.9519 103.611 73.0871 106.732 73.0871C108.813 73.0871 110.53 72.6274 111.344 72.2467L101.755 58.2031L108.54 51.1859L119.713 68.2077" fill="#1C2024"/>
</svg>
